<mxfile host="app.diagrams.net" agent="Mozilla/5.0 (Windows NT 10.0; Win64; x64) AppleWebKit/537.36 (KHTML, like Gecko) Chrome/136.0.0.0 Safari/537.36" version="27.0.1">
  <diagram name="Página-1" id="yURDUySRpiRsSr-sGN7w">
    <mxGraphModel dx="2593" dy="1427" grid="1" gridSize="10" guides="1" tooltips="1" connect="1" arrows="1" fold="1" page="1" pageScale="1" pageWidth="827" pageHeight="1169" math="0" shadow="0">
      <root>
        <mxCell id="0" />
        <mxCell id="1" parent="0" />
        <mxCell id="D8RVxgCauySBgLz46quM-11" value="&lt;b&gt;Veiculo&lt;/b&gt;" style="swimlane;fontStyle=0;align=center;verticalAlign=top;childLayout=stackLayout;horizontal=1;startSize=30;horizontalStack=0;resizeParent=1;resizeParentMax=0;resizeLast=0;collapsible=0;marginBottom=0;html=1;whiteSpace=wrap;" vertex="1" parent="1">
          <mxGeometry x="323" y="80" width="140" height="172" as="geometry" />
        </mxCell>
        <mxCell id="D8RVxgCauySBgLz46quM-13" value="modelo&lt;div&gt;fabricante&lt;/div&gt;&lt;div&gt;anofabricação&lt;/div&gt;&lt;div&gt;tipo&lt;/div&gt;&lt;div&gt;status&lt;/div&gt;" style="text;html=1;strokeColor=none;fillColor=none;align=left;verticalAlign=middle;spacingLeft=4;spacingRight=4;overflow=hidden;rotatable=0;points=[[0,0.5],[1,0.5]];portConstraint=eastwest;whiteSpace=wrap;" vertex="1" parent="D8RVxgCauySBgLz46quM-11">
          <mxGeometry y="30" width="140" height="80" as="geometry" />
        </mxCell>
        <mxCell id="D8RVxgCauySBgLz46quM-15" value="..." style="text;html=1;strokeColor=none;fillColor=none;align=left;verticalAlign=middle;spacingLeft=4;spacingRight=4;overflow=hidden;rotatable=0;points=[[0,0.5],[1,0.5]];portConstraint=eastwest;whiteSpace=wrap;" vertex="1" parent="D8RVxgCauySBgLz46quM-11">
          <mxGeometry y="110" width="140" height="20" as="geometry" />
        </mxCell>
        <mxCell id="D8RVxgCauySBgLz46quM-18" value="get/set methods toString()" style="text;html=1;strokeColor=none;fillColor=none;align=left;verticalAlign=middle;spacingLeft=4;spacingRight=4;overflow=hidden;rotatable=0;points=[[0,0.5],[1,0.5]];portConstraint=eastwest;whiteSpace=wrap;" vertex="1" parent="D8RVxgCauySBgLz46quM-11">
          <mxGeometry y="130" width="140" height="42" as="geometry" />
        </mxCell>
        <mxCell id="D8RVxgCauySBgLz46quM-19" value="Carro" style="swimlane;fontStyle=1;align=center;verticalAlign=top;childLayout=stackLayout;horizontal=1;startSize=26;horizontalStack=0;resizeParent=1;resizeParentMax=0;resizeLast=0;collapsible=1;marginBottom=0;whiteSpace=wrap;html=1;" vertex="1" parent="1">
          <mxGeometry x="180" y="320" width="100" height="86" as="geometry" />
        </mxCell>
        <mxCell id="D8RVxgCauySBgLz46quM-20" value="portas" style="text;strokeColor=none;fillColor=none;align=left;verticalAlign=top;spacingLeft=4;spacingRight=4;overflow=hidden;rotatable=0;points=[[0,0.5],[1,0.5]];portConstraint=eastwest;whiteSpace=wrap;html=1;" vertex="1" parent="D8RVxgCauySBgLz46quM-19">
          <mxGeometry y="26" width="100" height="26" as="geometry" />
        </mxCell>
        <mxCell id="D8RVxgCauySBgLz46quM-21" value="" style="line;strokeWidth=1;fillColor=none;align=left;verticalAlign=middle;spacingTop=-1;spacingLeft=3;spacingRight=3;rotatable=0;labelPosition=right;points=[];portConstraint=eastwest;strokeColor=inherit;" vertex="1" parent="D8RVxgCauySBgLz46quM-19">
          <mxGeometry y="52" width="100" height="8" as="geometry" />
        </mxCell>
        <mxCell id="D8RVxgCauySBgLz46quM-22" value="get/set&lt;div&gt;&lt;br&gt;&lt;/div&gt;" style="text;strokeColor=none;fillColor=none;align=left;verticalAlign=top;spacingLeft=4;spacingRight=4;overflow=hidden;rotatable=0;points=[[0,0.5],[1,0.5]];portConstraint=eastwest;whiteSpace=wrap;html=1;" vertex="1" parent="D8RVxgCauySBgLz46quM-19">
          <mxGeometry y="60" width="100" height="26" as="geometry" />
        </mxCell>
        <mxCell id="D8RVxgCauySBgLz46quM-23" value="Moto" style="swimlane;fontStyle=1;align=center;verticalAlign=top;childLayout=stackLayout;horizontal=1;startSize=26;horizontalStack=0;resizeParent=1;resizeParentMax=0;resizeLast=0;collapsible=1;marginBottom=0;whiteSpace=wrap;html=1;" vertex="1" parent="1">
          <mxGeometry x="340" y="320" width="106" height="86" as="geometry" />
        </mxCell>
        <mxCell id="D8RVxgCauySBgLz46quM-24" value="cilindrr" style="text;strokeColor=none;fillColor=none;align=left;verticalAlign=top;spacingLeft=4;spacingRight=4;overflow=hidden;rotatable=0;points=[[0,0.5],[1,0.5]];portConstraint=eastwest;whiteSpace=wrap;html=1;" vertex="1" parent="D8RVxgCauySBgLz46quM-23">
          <mxGeometry y="26" width="106" height="26" as="geometry" />
        </mxCell>
        <mxCell id="D8RVxgCauySBgLz46quM-25" value="" style="line;strokeWidth=1;fillColor=none;align=left;verticalAlign=middle;spacingTop=-1;spacingLeft=3;spacingRight=3;rotatable=0;labelPosition=right;points=[];portConstraint=eastwest;strokeColor=inherit;" vertex="1" parent="D8RVxgCauySBgLz46quM-23">
          <mxGeometry y="52" width="106" height="8" as="geometry" />
        </mxCell>
        <mxCell id="D8RVxgCauySBgLz46quM-26" value="get/set&lt;div&gt;&lt;br&gt;&lt;/div&gt;" style="text;strokeColor=none;fillColor=none;align=left;verticalAlign=top;spacingLeft=4;spacingRight=4;overflow=hidden;rotatable=0;points=[[0,0.5],[1,0.5]];portConstraint=eastwest;whiteSpace=wrap;html=1;" vertex="1" parent="D8RVxgCauySBgLz46quM-23">
          <mxGeometry y="60" width="106" height="26" as="geometry" />
        </mxCell>
        <mxCell id="D8RVxgCauySBgLz46quM-27" value="Utilitario" style="swimlane;fontStyle=1;align=center;verticalAlign=top;childLayout=stackLayout;horizontal=1;startSize=26;horizontalStack=0;resizeParent=1;resizeParentMax=0;resizeLast=0;collapsible=1;marginBottom=0;whiteSpace=wrap;html=1;" vertex="1" parent="1">
          <mxGeometry x="500" y="320" width="100" height="86" as="geometry" />
        </mxCell>
        <mxCell id="D8RVxgCauySBgLz46quM-28" value="capacidade" style="text;strokeColor=none;fillColor=none;align=left;verticalAlign=top;spacingLeft=4;spacingRight=4;overflow=hidden;rotatable=0;points=[[0,0.5],[1,0.5]];portConstraint=eastwest;whiteSpace=wrap;html=1;" vertex="1" parent="D8RVxgCauySBgLz46quM-27">
          <mxGeometry y="26" width="100" height="26" as="geometry" />
        </mxCell>
        <mxCell id="D8RVxgCauySBgLz46quM-29" value="" style="line;strokeWidth=1;fillColor=none;align=left;verticalAlign=middle;spacingTop=-1;spacingLeft=3;spacingRight=3;rotatable=0;labelPosition=right;points=[];portConstraint=eastwest;strokeColor=inherit;" vertex="1" parent="D8RVxgCauySBgLz46quM-27">
          <mxGeometry y="52" width="100" height="8" as="geometry" />
        </mxCell>
        <mxCell id="D8RVxgCauySBgLz46quM-30" value="get/set" style="text;strokeColor=none;fillColor=none;align=left;verticalAlign=top;spacingLeft=4;spacingRight=4;overflow=hidden;rotatable=0;points=[[0,0.5],[1,0.5]];portConstraint=eastwest;whiteSpace=wrap;html=1;" vertex="1" parent="D8RVxgCauySBgLz46quM-27">
          <mxGeometry y="60" width="100" height="26" as="geometry" />
        </mxCell>
        <mxCell id="D8RVxgCauySBgLz46quM-31" value="" style="strokeWidth=2;html=1;shape=mxgraph.flowchart.annotation_2;align=left;labelPosition=right;pointerEvents=1;direction=south;" vertex="1" parent="1">
          <mxGeometry x="230" y="252" width="320" height="50" as="geometry" />
        </mxCell>
        <mxCell id="D8RVxgCauySBgLz46quM-32" style="edgeStyle=orthogonalEdgeStyle;rounded=0;orthogonalLoop=1;jettySize=auto;html=1;exitX=0.5;exitY=0;exitDx=0;exitDy=0;entryX=1;entryY=0;entryDx=0;entryDy=0;entryPerimeter=0;" edge="1" parent="1" source="D8RVxgCauySBgLz46quM-27" target="D8RVxgCauySBgLz46quM-31">
          <mxGeometry relative="1" as="geometry" />
        </mxCell>
        <mxCell id="D8RVxgCauySBgLz46quM-34" style="edgeStyle=orthogonalEdgeStyle;rounded=0;orthogonalLoop=1;jettySize=auto;html=1;exitX=0.5;exitY=0;exitDx=0;exitDy=0;entryX=1;entryY=1;entryDx=0;entryDy=0;entryPerimeter=0;" edge="1" parent="1" source="D8RVxgCauySBgLz46quM-19" target="D8RVxgCauySBgLz46quM-31">
          <mxGeometry relative="1" as="geometry" />
        </mxCell>
        <mxCell id="D8RVxgCauySBgLz46quM-36" style="edgeStyle=orthogonalEdgeStyle;rounded=0;orthogonalLoop=1;jettySize=auto;html=1;exitX=1;exitY=0.5;exitDx=0;exitDy=0;exitPerimeter=0;" edge="1" parent="1" source="D8RVxgCauySBgLz46quM-31" target="D8RVxgCauySBgLz46quM-31">
          <mxGeometry relative="1" as="geometry" />
        </mxCell>
        <mxCell id="D8RVxgCauySBgLz46quM-39" style="edgeStyle=orthogonalEdgeStyle;rounded=0;orthogonalLoop=1;jettySize=auto;html=1;exitX=1;exitY=0.5;exitDx=0;exitDy=0;exitPerimeter=0;" edge="1" parent="1" source="D8RVxgCauySBgLz46quM-31" target="D8RVxgCauySBgLz46quM-31">
          <mxGeometry relative="1" as="geometry" />
        </mxCell>
        <mxCell id="D8RVxgCauySBgLz46quM-40" value="&lt;b&gt;Cliente&lt;/b&gt;" style="swimlane;fontStyle=4;align=center;verticalAlign=top;childLayout=stackLayout;horizontal=1;startSize=30;horizontalStack=0;resizeParent=1;resizeParentMax=0;resizeLast=0;collapsible=0;marginBottom=0;html=1;whiteSpace=wrap;" vertex="1" parent="1">
          <mxGeometry x="323" y="440" width="140" height="120" as="geometry" />
        </mxCell>
        <mxCell id="D8RVxgCauySBgLz46quM-41" value="nome&lt;div&gt;cpf&lt;/div&gt;&lt;div&gt;contato&lt;/div&gt;" style="html=1;strokeColor=none;fillColor=none;align=left;verticalAlign=middle;spacingLeft=4;spacingRight=4;rotatable=0;points=[[0,0.5],[1,0.5]];resizeWidth=1;whiteSpace=wrap;" vertex="1" parent="D8RVxgCauySBgLz46quM-40">
          <mxGeometry y="30" width="140" height="50" as="geometry" />
        </mxCell>
        <mxCell id="D8RVxgCauySBgLz46quM-42" value="" style="line;strokeWidth=1;fillColor=none;align=left;verticalAlign=middle;spacingTop=-1;spacingLeft=3;spacingRight=3;rotatable=0;labelPosition=right;points=[];portConstraint=eastwest;" vertex="1" parent="D8RVxgCauySBgLz46quM-40">
          <mxGeometry y="80" width="140" height="8" as="geometry" />
        </mxCell>
        <mxCell id="D8RVxgCauySBgLz46quM-43" value="get/set methods toString()" style="html=1;strokeColor=none;fillColor=none;align=center;verticalAlign=middle;spacingLeft=4;spacingRight=4;rotatable=0;points=[[0,0.5],[1,0.5]];resizeWidth=1;whiteSpace=wrap;" vertex="1" parent="D8RVxgCauySBgLz46quM-40">
          <mxGeometry y="88" width="140" height="32" as="geometry" />
        </mxCell>
        <mxCell id="D8RVxgCauySBgLz46quM-51" value="" style="endArrow=classic;html=1;rounded=0;exitX=3.76;exitY=0.5;exitDx=0;exitDy=0;exitPerimeter=0;" edge="1" parent="1" source="D8RVxgCauySBgLz46quM-31">
          <mxGeometry width="50" height="50" relative="1" as="geometry">
            <mxPoint x="393" y="440" as="sourcePoint" />
            <mxPoint x="390" y="410" as="targetPoint" />
          </mxGeometry>
        </mxCell>
        <mxCell id="D8RVxgCauySBgLz46quM-52" value="" style="endArrow=classic;html=1;rounded=0;entryX=0.546;entryY=0.503;entryDx=0;entryDy=0;entryPerimeter=0;exitX=0.48;exitY=-0.021;exitDx=0;exitDy=0;exitPerimeter=0;" edge="1" parent="1" target="D8RVxgCauySBgLz46quM-31">
          <mxGeometry width="50" height="50" relative="1" as="geometry">
            <mxPoint x="390.67999999999995" y="320.00399999999996" as="sourcePoint" />
            <mxPoint x="389.31999999999994" y="280.46" as="targetPoint" />
            <Array as="points">
              <mxPoint x="389.79999999999995" y="291.81" />
            </Array>
          </mxGeometry>
        </mxCell>
        <mxCell id="D8RVxgCauySBgLz46quM-54" value="" style="strokeWidth=2;html=1;shape=mxgraph.flowchart.annotation_1;align=left;pointerEvents=1;direction=south;" vertex="1" parent="1">
          <mxGeometry x="298.5" y="590" width="183" height="20" as="geometry" />
        </mxCell>
        <mxCell id="D8RVxgCauySBgLz46quM-55" value="&lt;b&gt;pessoa Fisica&lt;/b&gt;" style="swimlane;fontStyle=0;align=center;verticalAlign=top;childLayout=stackLayout;horizontal=1;startSize=40;horizontalStack=0;resizeParent=1;resizeParentMax=0;resizeLast=0;collapsible=0;marginBottom=0;html=1;whiteSpace=wrap;" vertex="1" parent="1">
          <mxGeometry x="230" y="610" width="110" height="60" as="geometry" />
        </mxCell>
        <mxCell id="D8RVxgCauySBgLz46quM-56" value="get/set" style="text;html=1;strokeColor=none;fillColor=none;align=left;verticalAlign=middle;spacingLeft=4;spacingRight=4;overflow=hidden;rotatable=0;points=[[0,0.5],[1,0.5]];portConstraint=eastwest;whiteSpace=wrap;" vertex="1" parent="D8RVxgCauySBgLz46quM-55">
          <mxGeometry y="40" width="110" height="20" as="geometry" />
        </mxCell>
        <mxCell id="D8RVxgCauySBgLz46quM-57" value="&lt;b&gt;Pessoa Juridica&lt;/b&gt;" style="swimlane;fontStyle=0;align=center;verticalAlign=top;childLayout=stackLayout;horizontal=1;startSize=40;horizontalStack=0;resizeParent=1;resizeParentMax=0;resizeLast=0;collapsible=0;marginBottom=0;html=1;whiteSpace=wrap;" vertex="1" parent="1">
          <mxGeometry x="430" y="610" width="110" height="60" as="geometry" />
        </mxCell>
        <mxCell id="D8RVxgCauySBgLz46quM-58" value="get/set" style="text;html=1;strokeColor=none;fillColor=none;align=left;verticalAlign=middle;spacingLeft=4;spacingRight=4;overflow=hidden;rotatable=0;points=[[0,0.5],[1,0.5]];portConstraint=eastwest;whiteSpace=wrap;" vertex="1" parent="D8RVxgCauySBgLz46quM-57">
          <mxGeometry y="40" width="110" height="20" as="geometry" />
        </mxCell>
        <mxCell id="D8RVxgCauySBgLz46quM-59" value="" style="endArrow=classic;html=1;rounded=0;entryX=0.473;entryY=1.079;entryDx=0;entryDy=0;entryPerimeter=0;exitX=-0.119;exitY=0.522;exitDx=0;exitDy=0;exitPerimeter=0;" edge="1" parent="1" target="D8RVxgCauySBgLz46quM-43">
          <mxGeometry width="50" height="50" relative="1" as="geometry">
            <mxPoint x="389.6340000000002" y="590" as="sourcePoint" />
            <mxPoint x="390.35999999999996" y="563.756" as="targetPoint" />
          </mxGeometry>
        </mxCell>
      </root>
    </mxGraphModel>
  </diagram>
</mxfile>
